<svg class="nav-main-logo" xmlns="http://www.w3.org/2000/svg" width="160" viewBox="0 0 159 27">
                            <g class="nav-main-logo-full" fill-rule="evenodd">
                                <g class="nav-main-logo-v">
                                    <circle class="nav-main-logo-dot" cx="25.075" cy="24.075" r="2.075"></circle>
                                    <polygon points="27.556 .648 16.194 25.965 11.177 25.965 .035 .648 7.943 .648 13.705 15.085 19.63 .648 27.556 .648"></polygon>
                                </g>
                                <path class="nav-main-logo-rest" d="M40.239,16.434 C40.239,14.98 39.92,13.844 39.286,13.02 C38.65,12.198 37.727,11.786 36.517,11.786 C35.318,11.786 34.401,12.198 33.767,13.02 C33.131,13.843 32.814,14.98 32.814,16.434 C32.814,17.874 33.134,19.016 33.776,19.857 C34.417,20.698 35.331,21.117 36.517,21.117 C37.727,21.117 38.65,20.701 39.286,19.867 C39.92,19.032 40.239,17.887 40.239,16.434 Z M47.096,16.434 C47.096,18.263 46.697,19.894 45.9,21.326 C45.103,22.758 43.91,23.889 42.323,24.719 C40.733,25.55 38.799,25.965 36.517,25.965 C34.234,25.965 32.299,25.55 30.711,24.719 C29.123,23.889 27.934,22.759 27.143,21.326 C26.353,19.893 25.957,18.263 25.957,16.434 C25.957,15.05 26.176,13.792 26.617,12.66 C27.0607489,11.5247949 27.7466794,10.4999943 28.627,9.657 C29.527,8.784 30.636,8.112 31.952,7.643 C33.268,7.174 34.79,6.939 36.517,6.939 C38.256,6.939 39.793,7.177 41.127,7.651 C42.462,8.127 43.567,8.791 44.443,9.647 C45.3112665,10.4918519 45.9875732,11.5136447 46.426,12.643 C46.872,13.786 47.096,15.05 47.096,16.433 L47.096,16.434 Z M56.313,3.014 C56.313,3.581 56.189,4.086 55.943,4.53 C55.695,4.973 55.326,5.323 54.834,5.58 C54.342,5.838 53.743,5.966 53.036,5.966 C52.329,5.966 51.729,5.838 51.237,5.581 C50.746,5.323 50.377,4.973 50.132,4.53 C49.8818278,4.064446 49.7554553,3.54242742 49.765,3.014 C49.765,2.585 49.833,2.196 49.969,1.845 C50.106,1.495 50.313,1.185 50.592,0.915 C50.871,0.645 51.214,0.436 51.622,0.291 C52.03,0.146 52.501,0.073 53.036,0.073 C53.574,0.073 54.051,0.146 54.464,0.293 C54.877,0.441 55.22,0.647 55.491,0.912 C55.762,1.176 55.967,1.486 56.105,1.84 C56.244,2.194 56.313,2.585 56.313,3.014 L56.313,3.014 Z M49.765,25.965 L56.313,25.965 L56.313,7.248 L49.765,7.248 L49.765,25.965 Z M75.567,24.792 C75.023,24.997 74.447,25.188 73.841,25.362 C73.236,25.535 72.553,25.678 71.796,25.794 C70.9743798,25.9123987 70.1450947,25.9695562 69.315,25.965 C67.291,25.965 65.581,25.625 64.188,24.945 C62.795,24.265 61.72,23.411 60.967,22.382 C60.212,21.353 59.69,20.303 59.402,19.232 C59.112,18.161 58.968,17.217 58.968,16.398 C58.968,15.579 59.115,14.635 59.411,13.563 C59.706,12.493 60.221,11.457 60.957,10.459 C61.693,9.46 62.759,8.624 64.153,7.949 C65.547,7.276 67.267,6.939 69.315,6.939 C70.684,6.939 71.799,7.036 72.66,7.227 C73.52,7.419 74.393,7.677 75.277,8.002 L75.277,13.106 C73.143,12.433 71.477,12.096 70.279,12.096 C69.115,12.096 68.081,12.444 67.179,13.144 C66.277,13.844 65.825,14.927 65.825,16.398 C65.825,17.374 66.049,18.197 66.497,18.865 C66.945,19.533 67.514,20.025 68.206,20.339 C68.896,20.653 69.587,20.809 70.279,20.809 C70.933,20.809 71.679,20.713 72.514,20.519 C73.5402439,20.2749082 74.5584296,19.9981004 75.567,19.689 L75.567,24.792 L75.567,24.792 Z M90.452,14.828 C90.452,13.652 90.159,12.714 89.572,12.013 C88.985,11.312 88.139,10.961 87.039,10.961 C85.949,10.961 85.068,11.317 84.396,12.031 C83.725,12.744 83.388,13.677 83.388,14.828 L90.452,14.828 L90.452,14.828 Z M96.64,18.076 L83.57,18.076 C83.825,19.182 84.45,20.086 85.447,20.788 C86.443,21.489 87.573,21.84 88.837,21.84 C91.047,21.84 93.49,21.233 96.163,20.02 L96.163,24.019 C95.203,24.512 94.042,24.959 92.676,25.361 C91.309,25.763 89.57,25.965 87.458,25.965 C85.174,25.965 83.232,25.545 81.629,24.701 C80.026,23.859 78.827,22.715 78.032,21.271 C77.237,19.828 76.84,18.191 76.84,16.361 C76.84,14.557 77.237,12.941 78.033,11.515 C78.828,10.089 80.028,8.969 81.631,8.157 C83.234,7.345 85.176,6.939 87.459,6.939 C88.966,6.939 90.419,7.263 91.822,7.909 C93.224,8.557 94.377,9.614 95.282,11.084 C96.186,12.554 96.64,14.448 96.64,16.769 L96.64,18.076 L96.64,18.076 Z M113.19,20.285 C113.19,21.968 112.57,23.335 111.328,24.387 C110.085,25.44 108.241,25.965 105.793,25.965 C104.423,25.965 103.205,25.842 102.14,25.595 C100.956862,25.3137487 99.7914762,24.9624633 98.65,24.543 L98.65,19.926 C99.752,20.552 100.708,21.027 101.52,21.352 C102.33,21.678 103.221,21.84 104.19,21.84 C105.825,21.84 106.643,21.394 106.643,20.502 C106.643,20.2 106.524,19.933 106.288,19.698 C106.05,19.462 105.638,19.198 105.051,18.901 C104.27745,18.5229686 103.491693,18.1704453 102.695,17.844 C101.485,17.314 100.457,16.604 99.611,15.714 C98.764,14.823 98.341,13.734 98.341,12.445 C98.341,11.531 98.623,10.653 99.186,9.81 C99.75,8.967 100.6,8.279 101.74,7.742 C102.879,7.207 104.254,6.939 105.865,6.939 C106.253,6.939 106.747,6.966 107.347,7.019 C107.947,7.074 108.704,7.215 109.618,7.443 C110.533,7.672 111.402,7.996 112.227,8.415 L112.227,12.905 L111.252,12.327 C110.443113,11.8618202 109.572967,11.5124154 108.667,11.289 C108.075102,11.1385365 107.466723,11.0626152 106.856,11.063 C106.104,11.063 105.587,11.209 105.308,11.498 C105.028,11.788 104.89,12.076 104.89,12.365 C104.89,12.667 105.035,12.947 105.327,13.207 C105.619,13.467 106.269,13.788 107.28,14.173 C108.734,14.728 109.898,15.297 110.772,15.882 C111.646,16.467 112.266,17.109 112.636,17.808 C113.006,18.507 113.191,19.333 113.191,20.285 L113.19,20.285 Z M118.418,23.902 C118.429309,24.4508396 118.214527,24.9802003 117.824,25.366 C117.428,25.766 116.941,25.966 116.363,25.966 C115.789,25.966 115.296,25.764 114.885,25.361 C114.483568,24.9828124 114.259349,24.4534661 114.267,23.902 C114.267,23.327 114.473,22.84 114.885,22.44 C115.296,22.04 115.789,21.84 116.363,21.84 C116.723,21.84 117.065,21.933 117.39,22.12 C117.715,22.304 117.967,22.554 118.148,22.867 C118.328,23.181 118.418,23.525 118.418,23.902 L118.418,23.902 Z M128.086,25.339 C127.795,25.447 127.488,25.549 127.164,25.642 C126.805664,25.7425632 126.44125,25.8200554 126.073,25.874 C125.633817,25.9366857 125.19063,25.9671005 124.747,25.965 C123.667,25.965 122.755,25.785 122.011,25.422 C121.266,25.06 120.693,24.605 120.291,24.057 C119.888,23.51 119.609,22.95 119.455,22.38 C119.3,21.81 119.224,21.306 119.224,20.87 C119.224,20.435 119.302,19.932 119.46,19.362 C119.630652,18.764816 119.910363,18.2043763 120.285,17.709 C120.678,17.177 121.247,16.731 121.991,16.372 C122.735,16.013 123.654,15.834 124.747,15.834 C125.479,15.834 126.073,15.884 126.534,15.987 C126.992,16.091 127.459,16.229 127.932,16.403 L127.932,19.13 C126.793,18.772 125.902,18.592 125.262,18.592 C124.641,18.592 124.089,18.777 123.607,19.147 C123.125,19.517 122.884,20.093 122.884,20.872 C122.884,21.388 123.004,21.823 123.243,22.178 C123.483,22.532 123.786,22.792 124.155,22.958 C124.525,23.124 124.893,23.207 125.261,23.207 C125.611,23.207 126.011,23.156 126.456,23.053 C126.902,22.95 127.446,22.803 128.086,22.61 L128.086,25.339 L128.086,25.339 Z M136.44,20.89 C136.44,20.115 136.27,19.508 135.928,19.07 C135.586,18.63 135.088,18.411 134.438,18.411 C133.793,18.411 133.3,18.631 132.956,19.07 C132.616,19.508 132.445,20.115 132.445,20.89 C132.445,21.658 132.615,22.267 132.962,22.715 C133.307,23.163 133.799,23.387 134.438,23.387 C135.088,23.387 135.586,23.164 135.928,22.72 C136.27,22.275 136.44,21.665 136.44,20.89 Z M140.1,20.89 C140.1,21.864 139.888,22.733 139.46,23.495 C139.034,24.258 138.396,24.86 137.545,25.303 C136.695,25.745 135.659,25.965 134.438,25.965 C133.216,25.965 132.179,25.745 131.329,25.303 C130.479,24.86 129.843,24.258 129.419,23.495 C128.994,22.733 128.784,21.865 128.784,20.89 C128.784,20.153 128.903,19.484 129.138,18.881 C129.376113,18.2758002 129.743305,17.7297885 130.214,17.281 C130.696,16.815 131.288,16.458 131.994,16.209 C132.698,15.959 133.514,15.834 134.438,15.834 C135.368,15.834 136.19,15.961 136.906,16.214 C137.619,16.466 138.211,16.821 138.679,17.275 C139.149,17.731 139.502,18.262 139.743,18.871 C139.981,19.481 140.1,20.153 140.1,20.89 Z M158.926,25.965 L155.445,25.965 L155.445,20.577 C155.445,19.887 155.329,19.37 155.098,19.027 C154.866,18.686 154.502,18.515 153.999,18.515 C153.513,18.515 153.111,18.66 152.799,18.951 C152.487,19.242 152.174,19.609 151.861,20.049 L151.861,25.965 L148.381,25.965 L148.381,20.577 C148.381,19.919 148.273,19.41 148.061,19.052 C147.847,18.694 147.471,18.515 146.927,18.515 C146.667,18.515 146.431,18.566 146.214,18.668 C146.021132,18.7548466 145.843,18.8712457 145.686,19.013 C145.55,19.141 145.386,19.33 145.192,19.58 C144.998,19.83 144.874,19.986 144.824,20.049 L144.824,25.965 L141.343,25.965 L141.343,15.988 L144.823,15.988 L144.823,17.415 C145.347,16.863 145.879,16.46 146.422,16.21 C146.964,15.959 147.589,15.834 148.299,15.834 C148.635,15.834 148.954,15.864 149.258,15.925 C149.561,15.986 149.86,16.091 150.153,16.239 C150.446,16.387 150.713,16.589 150.953,16.846 C151.191,17.104 151.382,17.402 151.523,17.743 C152.087,17.113 152.672,16.637 153.276,16.315 C153.882,15.995 154.579,15.834 155.37,15.834 C156.16,15.834 156.823,15.991 157.356,16.304 C157.891,16.619 158.286,17.072 158.543,17.664 C158.796,18.255 158.926,18.974 158.926,19.82 L158.926,25.965 L158.926,25.965 Z"></path>
                            </g>
                        </svg>